<svg width="26" height="9" viewBox="0 0 26 9" fill="none" xmlns="http://www.w3.org/2000/svg">
<path d="M1 4.03296C0.723858 4.03296 0.5 4.25682 0.5 4.53296C0.5 4.8091 0.723858 5.03296 1 5.03296L1 4.03296ZM25.3536 4.88651C25.5488 4.69125 25.5488 4.37467 25.3536 4.17941L22.1716 0.997427C21.9763 0.802165 21.6597 0.802165 21.4645 0.997427C21.2692 1.19269 21.2692 1.50927 21.4645 1.70453L24.2929 4.53296L21.4645 7.36139C21.2692 7.55665 21.2692 7.87323 21.4645 8.06849C21.6597 8.26376 21.9763 8.26376 22.1716 8.06849L25.3536 4.88651ZM1 5.03296L25 5.03296L25 4.03296L1 4.03296L1 5.03296Z" fill="black"/>
</svg>
