<svg width="10" height="7" viewBox="0 0 10 7" fill="none" xmlns="http://www.w3.org/2000/svg">
<path d="M8.71655 0.264994C8.85799 0.116346 9.04899 0.032959 9.24803 0.032959C9.44708 0.032959 9.63807 0.116346 9.77951 0.264994C9.84935 0.337988 9.9048 0.424996 9.94265 0.520954C9.98051 0.616911 10 0.719901 10 0.82393C10 0.92796 9.98051 1.03095 9.94265 1.12691C9.9048 1.22286 9.84935 1.30987 9.77951 1.38287L5.53202 5.80129C5.39026 5.94973 5.19913 6.03296 5 6.03296C4.80087 6.03296 4.60974 5.94973 4.46798 5.80129L0.220486 1.38287C0.150654 1.30987 0.0951987 1.22286 0.057346 1.12691C0.0194934 1.03095 0 0.92796 0 0.82393C0 0.719901 0.0194934 0.616911 0.057346 0.520954C0.0951987 0.424996 0.150654 0.337988 0.220486 0.264994C0.361925 0.116346 0.552923 0.032959 0.751966 0.032959C0.951008 0.032959 1.14201 0.116346 1.28345 0.264994L5.00163 3.88856L8.71655 0.264994Z" fill="#333333"/>
</svg>
