<svg width="28" height="22" viewBox="0 0 28 22" fill="none" xmlns="http://www.w3.org/2000/svg">
<path fill-rule="evenodd" clip-rule="evenodd" d="M25.9042 7.48106C25.9482 7.21584 25.8724 6.9445 25.6988 6.73917C25.524 6.53506 25.2686 6.4165 24.9997 6.4165H2.99971C2.73083 6.4165 2.47538 6.53506 2.3006 6.73917C2.12705 6.9445 2.05127 7.21584 2.09527 7.48106C2.09527 7.48106 3.34438 15.1126 3.95916 18.8758C4.2256 20.5014 5.62994 21.6943 7.27627 21.6943H20.7232C22.3695 21.6943 23.7738 20.5014 24.0403 18.8758L25.9042 7.48106ZM23.9205 8.24984L22.2302 18.5801C22.1092 19.3183 21.4712 19.8609 20.7232 19.8609C17.3364 19.8609 10.663 19.8609 7.27627 19.8609C6.52827 19.8609 5.89027 19.3183 5.76927 18.5801L4.07894 8.24984H23.9205Z" fill="#008809"/>
<path fill-rule="evenodd" clip-rule="evenodd" d="M22.1192 6.86138L18.4525 0.75027C18.1922 0.316381 17.6287 0.175826 17.1949 0.436159C16.761 0.696492 16.6204 1.25994 16.8807 1.69383L20.5474 7.80494C20.8077 8.23883 21.3712 8.37938 21.8051 8.11905C22.239 7.85871 22.3795 7.29527 22.1192 6.86138Z" fill="#008809"/>
<path fill-rule="evenodd" clip-rule="evenodd" d="M7.45252 7.80494L11.1192 1.69383C11.3795 1.25994 11.239 0.696492 10.8051 0.436159C10.3712 0.175826 9.80774 0.316381 9.54741 0.75027L5.88074 6.86138C5.62041 7.29527 5.76096 7.85871 6.19485 8.11905C6.62874 8.37938 7.19218 8.23883 7.45252 7.80494Z" fill="#008809"/>
<path fill-rule="evenodd" clip-rule="evenodd" d="M13.083 11.611V16.4999C13.083 17.0059 13.4937 17.4166 13.9997 17.4166C14.5057 17.4166 14.9163 17.0059 14.9163 16.4999V11.611C14.9163 11.105 14.5057 10.6943 13.9997 10.6943C13.4937 10.6943 13.083 11.105 13.083 11.611Z" fill="#008809"/>
<path fill-rule="evenodd" clip-rule="evenodd" d="M8.19336 11.611V16.4999C8.19336 17.0059 8.60403 17.4166 9.11003 17.4166C9.61603 17.4166 10.0267 17.0059 10.0267 16.4999V11.611C10.0267 11.105 9.61603 10.6943 9.11003 10.6943C8.60403 10.6943 8.19336 11.105 8.19336 11.611Z" fill="#008809"/>
<path fill-rule="evenodd" clip-rule="evenodd" d="M17.9707 11.611V16.4999C17.9707 17.0059 18.3814 17.4166 18.8874 17.4166C19.3934 17.4166 19.804 17.0059 19.804 16.4999V11.611C19.804 11.105 19.3934 10.6943 18.8874 10.6943C18.3814 10.6943 17.9707 11.105 17.9707 11.611Z" fill="#008809"/>
<path fill-rule="evenodd" clip-rule="evenodd" d="M26.2215 6.4165H1.77702C1.27102 6.4165 0.860352 6.82717 0.860352 7.33317C0.860352 7.83917 1.27102 8.24984 1.77702 8.24984H26.2215C26.7275 8.24984 27.1381 7.83917 27.1381 7.33317C27.1381 6.82717 26.7275 6.4165 26.2215 6.4165Z" fill="#008809"/>
</svg>
