<svg width="17" height="17" viewBox="0 0 17 17" fill="none" xmlns="http://www.w3.org/2000/svg">
<g clip-path="url(#clip0_11_308)">
<path fill-rule="evenodd" clip-rule="evenodd" d="M16.6896 14.9533C16.5767 15.0658 16.4405 15.2097 16.2962 15.3619C15.936 15.7442 15.4861 16.2194 15.204 16.4121C13.7202 17.426 11.735 16.9409 10.3308 16.3558C8.47847 15.584 6.46174 14.1614 4.65094 12.3503C2.83845 10.5392 1.41596 8.52182 0.644155 6.67051C0.0597804 5.26602 -0.426413 3.28047 0.58771 1.79629C0.780288 1.51407 1.25659 1.0648 1.63836 0.703911C1.79109 0.560008 1.93386 0.424041 2.04676 0.311516C2.24718 0.11209 2.51841 0.000137329 2.80115 0.000137329C3.08388 0.000137329 3.35512 0.11209 3.55554 0.311516L6.28577 3.04095C6.48508 3.24136 6.59696 3.51252 6.59696 3.79517C6.59696 4.07782 6.48508 4.34898 6.28577 4.5494L5.54201 5.29165C5.29363 5.53822 5.1315 5.85841 5.07975 6.20455C5.02801 6.55069 5.08942 6.90429 5.25484 7.21272C6.27782 9.14349 7.85712 10.7225 9.78806 11.7452C10.0964 11.9105 10.45 11.9719 10.796 11.92C11.142 11.8682 11.4621 11.706 11.7085 11.4575L12.4504 10.7153C12.6508 10.5158 12.922 10.4039 13.2048 10.4039C13.4875 10.4039 13.7588 10.5158 13.9592 10.7153L16.6896 13.4451C16.8889 13.6455 17.0008 13.9166 17.0008 14.1992C17.0008 14.4818 16.8889 14.7529 16.6896 14.9533Z" fill="#18C533"/>
</g>
<defs>
<clipPath id="clip0_11_308">
<rect width="17" height="17" fill="white"/>
</clipPath>
</defs>
</svg>
