<svg width="20" height="20" viewBox="0 0 20 20" fill="none" xmlns="http://www.w3.org/2000/svg">
<path d="M18.4049 19.3332C18.2829 19.3333 18.1621 19.3092 18.0494 19.2624C17.9367 19.2156 17.8343 19.1471 17.7482 19.0606L0.937355 2.25197C0.762994 2.07761 0.665039 1.84112 0.665039 1.59454C0.665039 1.34796 0.762994 1.11147 0.937355 0.937111C1.11172 0.76275 1.3482 0.664795 1.59478 0.664795C1.84137 0.664795 2.07785 0.76275 2.25221 0.937111L19.0631 17.748C19.1926 17.878 19.2808 18.0434 19.3164 18.2234C19.352 18.4035 19.3336 18.59 19.2633 18.7596C19.1931 18.9291 19.0742 19.0741 18.9217 19.1762C18.7692 19.2783 18.5899 19.3329 18.4064 19.3332H18.4049Z" fill="#009F07"/>
<path d="M1.5952 19.3332C1.41155 19.3332 1.23203 19.2788 1.0793 19.1768C0.926563 19.0748 0.80747 18.9299 0.73705 18.7603C0.666631 18.5906 0.648044 18.404 0.683635 18.2238C0.719227 18.0436 0.807402 17.8781 0.937027 17.748L17.7479 0.937111C17.9222 0.76275 18.1587 0.664795 18.4053 0.664795C18.6519 0.664795 18.8884 0.76275 19.0627 0.937111C19.2371 1.11147 19.3351 1.34796 19.3351 1.59454C19.3351 1.84112 19.2371 2.07761 19.0627 2.25197L2.25188 19.0628C2.16559 19.1489 2.06317 19.2171 1.95048 19.2635C1.8378 19.3099 1.71706 19.3336 1.5952 19.3332Z" fill="#009F07"/>
</svg>
