<svg width="24" height="24" viewBox="0 0 24 24" fill="none" xmlns="http://www.w3.org/2000/svg">
<rect y="-0.000244141" width="24" height="24" rx="4" fill="#009F07" fill-opacity="0.1"/>
<path d="M15.9616 13.7461C14.8147 13.7461 13.8817 14.6791 13.8817 15.8259C13.8817 16.9728 14.8147 17.9057 15.9616 17.9057C17.1086 17.9057 18.0414 16.9728 18.0414 15.8259C18.0414 14.6791 17.1084 13.7461 15.9616 13.7461ZM15.9616 16.8658C15.3881 16.8658 14.9216 16.3994 14.9216 15.8259C14.9216 15.2524 15.3881 14.786 15.9616 14.786C16.5351 14.786 17.0015 15.2524 17.0015 15.8259C17.0015 16.3994 16.5351 16.8658 15.9616 16.8658ZM8.85547 13.7461C7.70863 13.7461 6.77563 14.6791 6.77563 15.8259C6.77563 16.9728 7.70863 17.9057 8.85547 17.9057C10.0023 17.9057 10.9353 16.9728 10.9353 15.8259C10.9353 14.6791 10.0023 13.7461 8.85547 13.7461ZM8.85547 16.8658C8.28197 16.8658 7.81555 16.3994 7.81555 15.8259C7.81555 15.2524 8.28197 14.786 8.85547 14.786C9.42882 14.786 9.89539 15.2524 9.89539 15.8259C9.89539 16.3994 9.42898 16.8658 8.85547 16.8658ZM17.3622 7.79292C17.3188 7.70684 17.2524 7.63448 17.1704 7.58393C17.0883 7.53337 16.9939 7.50659 16.8975 7.50659H14.159V8.54651H16.5768L17.9927 11.3626L18.922 10.8953L17.3622 7.79292Z" fill="#008809"/>
<path d="M10.4674 15.3232H14.4018V16.3631H10.4674V15.3232ZM7.29568 15.3232H5.49318C5.20598 15.3232 4.97324 15.556 4.97324 15.8431C4.97324 16.1303 5.20601 16.3631 5.49318 16.3631H7.29571C7.58291 16.3631 7.81565 16.1303 7.81565 15.8431C7.81565 15.5559 7.58288 15.3232 7.29568 15.3232ZM19.8908 12.1445L18.8681 10.8273C18.8195 10.7646 18.7573 10.714 18.6861 10.6791C18.6149 10.6443 18.5367 10.6262 18.4575 10.6262H14.6791V6.9865C14.6791 6.69929 14.4463 6.46655 14.1592 6.46655H5.49318C5.20598 6.46655 4.97324 6.69933 4.97324 6.9865C4.97324 7.27367 5.20601 7.50644 5.49318 7.50644H13.6392V11.1461C13.6392 11.4333 13.872 11.6661 14.1591 11.6661H18.2029L18.9601 12.6415V15.3231H17.5215C17.2343 15.3231 17.0016 15.5559 17.0016 15.8431C17.0016 16.1303 17.2343 16.363 17.5215 16.363H19.48C19.7672 16.363 20 16.1302 20 15.8431V12.4634C20 12.348 19.9615 12.2357 19.8908 12.1445ZM7.26103 12.6887H4.86921C4.58201 12.6887 4.34927 12.9215 4.34927 13.2087C4.34927 13.4959 4.58204 13.7286 4.86921 13.7286H7.261C7.5482 13.7286 7.78094 13.4958 7.78094 13.2087C7.78098 12.9215 7.5482 12.6887 7.26103 12.6887ZM8.45693 10.6435H4.01994C3.73277 10.6435 3.5 10.8763 3.5 11.1635C3.5 11.4507 3.73277 11.6835 4.01994 11.6835H8.45693C8.74413 11.6835 8.97687 11.4507 8.97687 11.1635C8.97687 10.8763 8.74413 10.6435 8.45693 10.6435Z" fill="#008809"/>
<path d="M9.30629 8.59814H4.86931C4.58211 8.59814 4.34937 8.83092 4.34937 9.11809C4.34937 9.40529 4.58214 9.63803 4.86931 9.63803H9.30629C9.5935 9.63803 9.82624 9.40526 9.82624 9.11809C9.82627 8.83092 9.5935 8.59814 9.30629 8.59814Z" fill="#008809"/>
</svg>
