<svg width="35" height="35" viewBox="0 0 35 35" fill="none" xmlns="http://www.w3.org/2000/svg">
<rect x="0.5" y="0.532959" width="34" height="34" rx="8" fill="#18C533" fill-opacity="0.15"/>
<path d="M29.0852 22.188C29.0797 22.1167 29.0575 22.0475 29.0204 21.9856C28.9832 21.9236 28.932 21.8705 28.8706 21.8301C28.7471 21.7488 28.5887 21.725 28.4453 21.7665C28.156 21.8502 27.826 21.8922 27.472 21.8922C26.8341 21.8922 26.0561 21.7512 25.1672 21.4731C24.5189 21.271 23.8864 21.0234 23.3287 20.8051C23.2122 20.7597 23.1021 20.7162 22.9936 20.6741C22.4588 20.4677 21.8557 20.3626 21.2014 20.3626C19.8504 20.3654 18.5547 20.807 17.6474 21.5744C16.9624 22.1539 16.5447 23.0166 16.5405 23.8945C16.5405 24.3838 16.6321 24.8834 16.8829 25.3142C16.0225 25.1582 15.0741 24.9009 14.0169 24.5115C13.7601 24.4171 13.4721 24.5401 13.3736 24.7865C13.275 25.0328 13.4033 25.3092 13.6601 25.4038C15.2336 25.9833 16.5935 26.2867 17.7895 26.4046C17.6504 26.6638 17.5769 26.9557 17.5773 27.2572C17.5793 27.9515 17.9498 28.6421 18.5936 29.1519C18.9287 29.4167 19.3261 29.6241 19.7743 29.7679C20.2523 29.9218 20.7792 29.9997 21.3394 29.9997H21.3424C21.4185 29.9997 21.4972 29.9983 21.5764 29.9954C21.7756 29.9878 21.9768 29.971 22.175 29.9457C22.3069 29.929 22.424 29.864 22.5046 29.7627C22.5445 29.7129 22.5736 29.656 22.5905 29.5953C22.6073 29.5346 22.6115 29.4713 22.6027 29.4091C22.5698 29.1725 22.3582 28.9943 22.1097 28.9943C22.0878 28.9943 21.7064 29.034 21.5386 29.0402C21.4729 29.0426 21.4066 29.044 21.3424 29.044C20.2529 29.043 19.5905 28.7008 19.227 28.4137C18.8157 28.0897 18.5716 27.6572 18.5732 27.2573C18.5737 27.0814 18.6195 26.9218 18.7096 26.7827C18.794 26.6536 18.9106 26.5491 19.0631 26.4637C21.1115 26.4485 22.6369 25.8877 23.972 25.3963C24.704 25.1268 25.3955 24.8723 26.0896 24.7375C26.3592 24.6851 26.5335 24.433 26.4788 24.1743C26.4242 23.9156 26.1615 23.7486 25.892 23.8008C25.1164 23.9514 24.3873 24.2198 23.6154 24.5039C22.2944 24.9901 20.8701 25.514 18.9548 25.5105C18.6827 25.4767 18.4482 25.4115 18.258 25.3157C17.7049 25.037 17.5355 24.4561 17.5364 23.8944C17.5513 23.2804 17.8268 22.6976 18.3077 22.2899C19.0064 21.6906 20.1104 21.3184 21.189 21.3184H21.2044C21.7223 21.3184 22.2123 21.402 22.6211 21.5607C22.7312 21.6032 22.8442 21.6476 22.9647 21.6949C23.5304 21.9162 24.1713 22.1676 24.8595 22.3821C25.8788 22.6994 26.7099 22.8476 27.4743 22.848C27.6864 22.848 27.8936 22.8361 28.0898 22.8117C28.037 23.4535 27.8209 24.1665 27.4643 24.8737C27.0321 25.7344 26.4196 26.5424 25.6926 27.2114C25.4944 27.3935 25.4879 27.6965 25.6781 27.8867C25.7243 27.9334 25.78 27.9706 25.8418 27.9959C25.9035 28.0212 25.97 28.0341 26.0372 28.0338C26.1666 28.0338 26.2891 27.9866 26.3823 27.901C27.1929 27.1541 27.8776 26.2505 28.3617 25.2885C28.8422 24.3304 29.0966 23.3709 29.0976 22.5136C29.0976 22.404 29.0937 22.295 29.0852 22.188ZM29.4556 8.83409C28.4222 7.26311 26.6438 6.15804 24.448 5.72242C22.2984 5.29616 20.0225 5.60291 18.6497 6.50416C18.5882 6.54451 18.5369 6.59758 18.4997 6.65946C18.4624 6.72135 18.44 6.79047 18.4343 6.86173C18.4286 6.933 18.4396 7.00459 18.4665 7.07124C18.4934 7.13788 18.5356 7.19788 18.5899 7.24681C19.7552 8.2974 20.0574 10.4185 20.2782 11.9672C20.2955 12.0883 20.3122 12.2056 20.3288 12.3187C20.5813 14.0392 22.0802 15.7543 23.8154 16.3082C24.1691 16.4211 24.5801 16.4778 24.9659 16.4778C25.3312 16.4778 25.6738 16.427 25.9234 16.3246C26.717 15.9996 27.3009 15.555 27.636 15.0267C27.9099 15.8246 28.1312 16.7514 28.2816 17.8414C28.3148 18.0818 28.5617 18.2545 28.8077 18.2545C29.0803 18.2198 29.305 17.9775 29.2689 17.7159C29.0443 16.0882 28.6633 14.7907 28.1874 13.7321C28.648 13.7153 29.0952 13.5334 29.4629 13.191C29.944 12.7428 30.2229 12.085 30.2481 11.3388C30.2755 10.5299 30.0014 9.66381 29.4556 8.83409ZM28.7691 12.5052C28.4361 12.8154 28.0213 12.8634 27.6186 12.643C26.588 10.934 25.292 9.97791 24.1575 9.14126C23.524 8.67415 22.9257 8.23294 22.45 7.7166C22.2679 7.51891 21.9532 7.50037 21.7471 7.67512C21.541 7.84993 21.5217 8.15194 21.7039 8.34968C22.243 8.93478 22.8781 9.40318 23.5506 9.89906C24.6667 10.7221 25.8703 11.6102 26.8115 13.2117C26.9975 13.6423 27.0212 14.0134 26.8832 14.3447C26.6559 14.8904 26.0231 15.2446 25.5322 15.4457C25.2764 15.5505 24.6078 15.554 24.1296 15.4014C22.7513 14.9614 21.5149 13.5488 21.3149 12.1854C21.2984 12.0736 21.2819 11.9574 21.2648 11.8377C21.0509 10.3372 20.767 8.34452 19.7108 7.01887C20.8916 6.47635 22.5984 6.3316 24.2463 6.65842C26.1747 7.04095 27.7256 7.99482 28.6133 9.34431C29.5399 10.7527 29.3436 11.9701 28.7691 12.5052ZM13.9766 18.9959C15.4045 17.926 16.2043 15.8237 15.837 14.1059C15.6912 13.4243 15.2444 12.6681 14.7976 12.3468C14.1327 11.8689 13.4351 11.6468 12.7709 11.7C13.3479 11.0051 14.0712 10.3126 14.9904 9.63041C15.2079 9.46894 15.2479 9.16884 15.0796 8.96006C14.9114 8.75128 14.5986 8.71295 14.3811 8.87442C13.0296 9.87751 12.0667 10.9119 11.363 11.9408C11.0913 11.5457 10.6694 11.2445 10.1426 11.1006C8.95403 10.7758 7.29439 11.2864 6.26615 13.1591C5.36385 14.8026 5.25474 16.8316 5.95894 18.8725C6.64856 20.8711 8.06393 22.6079 9.56481 23.2971C9.63194 23.328 9.70541 23.344 9.77982 23.3439C9.85424 23.3439 9.92771 23.3279 9.99482 23.2971C10.0619 23.2663 10.121 23.2214 10.1677 23.1658C10.2143 23.1101 10.2474 23.0452 10.2645 22.9757C10.6309 21.4828 12.3959 20.1712 13.6846 19.2135C13.7853 19.1386 13.8829 19.0661 13.9766 18.9959ZM13.3637 18.2426C13.2709 18.3121 13.1744 18.3838 13.0748 18.4578C11.8261 19.3857 10.1677 20.6182 9.49848 22.1583C8.41755 21.4493 7.43308 20.1041 6.90442 18.572C6.28612 16.7801 6.37237 15.016 7.14734 13.6046C7.78695 12.4396 8.69339 11.9639 9.44176 11.9639C9.59195 11.9639 9.73587 11.9831 9.86993 12.0197C10.2818 12.1322 10.7053 12.4563 10.7061 13.0323C9.88467 14.5963 9.56471 16.1174 9.28151 17.4637C9.12449 18.2103 8.97619 18.9154 8.75957 19.5344C8.67202 19.7846 8.81241 20.0555 9.07315 20.1395C9.12574 20.1565 9.17917 20.1645 9.23171 20.1645C9.43982 20.1645 9.63384 20.0384 9.70375 19.8386C9.94015 19.163 10.0945 18.4294 10.2578 17.6528C10.5394 16.314 10.8412 14.8799 11.6119 13.4258C11.9662 12.9762 12.3576 12.7187 12.7758 12.6607C13.3286 12.5841 13.8556 12.8637 14.2005 13.1117C14.4231 13.2717 14.7602 13.8247 14.8614 14.2979C15.153 15.662 14.4951 17.3947 13.3637 18.2426Z" fill="#008809"/>
<path d="M24.2289 29.4604C24.504 29.4604 24.7269 29.2464 24.7269 28.9825C24.7269 28.7186 24.504 28.5046 24.2289 28.5046C23.9539 28.5046 23.731 28.7186 23.731 28.9825C23.731 29.2464 23.9539 29.4604 24.2289 29.4604Z" fill="#008809"/>
</svg>
