<svg width="19" height="23" viewBox="0 0 19 23" fill="none" xmlns="http://www.w3.org/2000/svg">
<path fill-rule="evenodd" clip-rule="evenodd" d="M9.5218 0.956223C7.2303 0.959096 5.03341 1.87042 3.41273 3.49042C1.79205 5.11042 0.87981 7.30692 0.875977 9.59843C0.875977 12.9054 2.9659 15.9189 4.95802 18.1573C6.95015 20.3958 8.94228 21.888 8.94228 21.888C9.10842 22.0126 9.3105 22.08 9.51818 22.08C9.72586 22.08 9.92794 22.0126 10.0941 21.888C10.0941 21.888 12.0862 20.3958 14.0783 18.1573C16.0705 15.9189 18.1604 12.9054 18.1604 9.59843C18.1585 7.30696 17.2473 5.1099 15.627 3.48958C14.0067 1.86927 11.8133 0.958141 9.5218 0.956223ZM9.51818 5.75906C10.5364 5.75906 11.513 6.16356 12.233 6.88358C12.953 7.6036 13.3575 8.58016 13.3575 9.59843C13.3575 10.6167 12.953 11.5933 12.233 12.3133C11.513 13.0333 10.5364 13.4378 9.51818 13.4378C8.49992 13.4378 7.52336 13.0333 6.80334 12.3133C6.08332 11.5933 5.67881 10.6167 5.67881 9.59843C5.67881 8.58016 6.08332 7.6036 6.80334 6.88358C7.52336 6.16356 8.49992 5.75906 9.51818 5.75906Z" fill="#18C533"/>
</svg>
