<svg width="27" height="22" viewBox="0 0 27 22" fill="none" xmlns="http://www.w3.org/2000/svg">
<path d="M19.5746 2.3001C19.5746 1.49931 18.9903 0.850098 18.2696 0.850098H1.30461C0.583902 0.850098 -0.000391006 1.49931 -0.000391006 2.3001C-0.000391006 3.10088 0.583902 3.7501 1.30461 3.7501H18.2696C18.9903 3.7501 19.5746 3.10083 19.5746 2.3001ZM1.30461 9.5501H24.7946C25.5153 9.5501 26.0996 10.1994 26.0996 11.0001C26.0996 11.8009 25.5153 12.4501 24.7946 12.4501H1.30461C0.583902 12.4501 -0.000391006 11.8009 -0.000391006 11.0001C-0.000391006 10.1994 0.583902 9.5501 1.30461 9.5501ZM1.30461 18.2501H13.0496C13.7703 18.2501 14.3546 18.8993 14.3546 19.7001C14.3546 20.5008 13.7703 21.1501 13.0496 21.1501H1.30461C0.583902 21.1501 -0.000391006 20.5008 -0.000391006 19.7001C-0.000391006 18.8993 0.583902 18.2501 1.30461 18.2501Z" fill="#026309"/>
</svg>
