<svg width="24" height="19" viewBox="0 0 24 19" fill="none" xmlns="http://www.w3.org/2000/svg">
<path d="M0.502117 1.4934C3.79602 4.28297 9.5758 9.19069 11.2746 10.7209C11.5026 10.9275 11.7472 11.0325 12.0011 11.0325C12.2545 11.0325 12.4987 10.9284 12.7262 10.7229C14.4264 9.19116 20.2062 4.28297 23.5002 1.4934C23.7052 1.32005 23.7365 1.01537 23.5705 0.803443C23.1867 0.31374 22.6144 0.032959 22.0011 0.032959H2.00113C1.38787 0.032959 0.81557 0.31374 0.431804 0.80349C0.265773 1.01537 0.297039 1.32005 0.502117 1.4934Z" fill="#18C533"/>
<path d="M23.71 3.00513C23.6235 2.96481 23.5273 2.95019 23.4328 2.96301C23.3382 2.97582 23.2494 3.01553 23.1768 3.07741C19.5239 6.17407 14.8618 10.1434 13.395 11.4651C12.5717 12.2082 11.4292 12.2082 10.604 11.4641C9.0405 10.0554 3.80512 5.60473 0.823219 3.07737C0.750461 3.01578 0.661623 2.97625 0.567161 2.96345C0.472699 2.95064 0.376545 2.96509 0.290016 3.00508C0.203456 3.04519 0.130165 3.1092 0.0787816 3.18958C0.027398 3.26995 6.34398e-05 3.36334 0 3.45874L0 16.033C0 17.136 0.896953 18.033 2.00002 18.033H22C23.103 18.033 24 17.136 24 16.033V3.45874C24 3.36333 23.9727 3.26992 23.9213 3.18954C23.8699 3.10915 23.7966 3.04517 23.71 3.00513Z" fill="#18C533"/>
</svg>
