<svg width="15" height="15" viewBox="0 0 15 15" fill="none" xmlns="http://www.w3.org/2000/svg">
<path d="M7.495 14.9999C7.4447 14.9999 7.39515 14.9877 7.35063 14.9642L0.168125 11.2142C0.117478 11.1879 0.0750286 11.1481 0.0453883 11.0993C0.0157481 11.0505 5.02615e-05 10.9945 0 10.9374L0 3.90611C5.4944e-05 3.85291 0.0136929 3.8006 0.0396218 3.75414C0.0655508 3.70768 0.102912 3.66861 0.148166 3.64063C0.19342 3.61265 0.245068 3.59669 0.298217 3.59426C0.351366 3.59183 0.404255 3.60301 0.451875 3.62674L7.63438 7.22049C7.68622 7.24646 7.72981 7.28635 7.76027 7.33569C7.79074 7.38503 7.80687 7.44187 7.80688 7.49986V14.6874C7.80688 14.7701 7.77404 14.8495 7.71557 14.9081C7.6571 14.9667 7.57777 14.9997 7.495 14.9999ZM0.625 10.748L7.1825 14.1717V7.69299L0.625 4.41174V10.748Z" fill="#2C2F35"/>
<path d="M7.50501 14.9999C7.46394 14.9999 7.42327 14.9919 7.38532 14.9762C7.34737 14.9606 7.31289 14.9376 7.28385 14.9085C7.25482 14.8795 7.2318 14.845 7.21613 14.8071C7.20045 14.7691 7.19242 14.7284 7.19251 14.6874V7.49987C7.19251 7.44188 7.20864 7.38504 7.23911 7.3357C7.26957 7.28636 7.31316 7.24647 7.36501 7.22049L14.5475 3.62674C14.5951 3.60287 14.6481 3.59157 14.7013 3.59393C14.7546 3.59629 14.8063 3.61223 14.8517 3.64022C14.897 3.66822 14.9345 3.70735 14.9604 3.75388C14.9864 3.80042 15 3.85283 15 3.90612V10.9374C15 10.9945 14.9843 11.0505 14.9546 11.0993C14.925 11.1481 14.8825 11.1879 14.8319 11.2142L7.64938 14.9642C7.60486 14.9877 7.55531 14.9999 7.50501 14.9999ZM7.81751 7.69299V14.1717L14.375 10.748V4.41174L7.81751 7.69299Z" fill="#2C2F35"/>
<path d="M0.312601 4.21862C0.242232 4.21862 0.173924 4.19486 0.118736 4.1512C0.0635485 4.10754 0.0247119 4.04653 0.00851391 3.97805C-0.00768404 3.90957 -0.000295067 3.83763 0.0294846 3.77387C0.0592642 3.71012 0.109691 3.65828 0.172601 3.62674L7.3651 0.0329946C7.4085 0.0114139 7.45632 0.000183105 7.50479 0.000183105C7.55326 0.000183105 7.60107 0.0114139 7.64448 0.0329946L14.827 3.62674C14.9012 3.66379 14.9576 3.72879 14.9838 3.80744C15.0101 3.88609 15.004 3.97194 14.967 4.04612C14.9299 4.1203 14.8649 4.17672 14.7863 4.20298C14.7076 4.22923 14.6218 4.22317 14.5476 4.18612L7.5051 0.661745L0.452601 4.18549C0.409162 4.20732 0.361215 4.21866 0.312601 4.21862Z" fill="#2C2F35"/>
<path d="M11.25 9.37485C11.1672 9.37485 11.0877 9.34193 11.0291 9.28332C10.9705 9.22472 10.9375 9.14523 10.9375 9.06235V5.81798L3.92753 2.31048C3.8908 2.29209 3.85805 2.26665 3.83116 2.23561C3.80426 2.20457 3.78374 2.16853 3.77077 2.12956C3.7578 2.09059 3.75263 2.04945 3.75556 2.00848C3.75849 1.96751 3.76946 1.92752 3.78784 1.89079C3.80623 1.85406 3.83167 1.82131 3.86271 1.79441C3.89375 1.76752 3.92979 1.74699 3.96876 1.73402C4.00773 1.72105 4.04887 1.71588 4.08984 1.71881C4.13081 1.72174 4.1708 1.73272 4.20753 1.7511L11.39 5.34485C11.4418 5.37105 11.4854 5.41107 11.5158 5.46049C11.5463 5.50992 11.5624 5.5668 11.5625 5.62485V9.06235C11.5625 9.14523 11.5296 9.22472 11.471 9.28332C11.4124 9.34193 11.3329 9.37485 11.25 9.37485Z" fill="#2C2F35"/>
</svg>
