<svg width="14" height="16" viewBox="0 0 14 16" fill="none" xmlns="http://www.w3.org/2000/svg">
<path d="M0.123116 7.20796L0.116958 7.21412C0.107721 7.22644 0.0984844 7.23567 0.0923265 7.24799C0.089248 7.25107 0.0892471 7.25415 0.0861686 7.25723C0.0800108 7.26954 0.0707735 7.28186 0.0646156 7.29417C0.0646156 7.29725 0.0615371 7.30033 0.0615371 7.30033C0.0553792 7.31265 0.0492214 7.32496 0.0430635 7.34036C0.0430635 7.34344 0.0430635 7.34344 0.0399841 7.34651C0.0338262 7.35883 0.0307477 7.37423 0.0245899 7.38962C0.0245899 7.3927 0.0245899 7.39578 0.0215104 7.39578C0.018432 7.41117 0.0122741 7.42349 0.0122741 7.43888C0.0122741 7.44504 0.0122741 7.44812 0.00919469 7.45428C0.00611623 7.46659 0.00611528 7.47891 0.00303682 7.49122C-4.26001e-05 7.5097 -4.16478e-05 7.52509 -4.16494e-05 7.54357C-4.1651e-05 7.56204 -4.2606e-05 7.57744 0.00303681 7.59591C0.00303681 7.60822 0.00611622 7.62054 0.00919468 7.63286C0.00919468 7.63901 0.00919563 7.64209 0.0122741 7.64825C0.0153535 7.66365 0.018432 7.67596 0.0215104 7.69136C0.0215104 7.69443 0.0215104 7.69751 0.0245898 7.69751C0.0276683 7.71291 0.0338262 7.72522 0.039984 7.74062C0.039984 7.7437 0.039985 7.7437 0.0430635 7.74678C0.0492213 7.75909 0.0553792 7.77449 0.0615371 7.7868C0.0615371 7.78988 0.0646155 7.79296 0.0646155 7.79296C0.0707734 7.80528 0.0769313 7.81759 0.0861686 7.82991C0.089247 7.83299 0.089248 7.83607 0.0923265 7.83914C0.101564 7.85146 0.107721 7.86378 0.116958 7.87301L0.123116 7.87917C0.135432 7.89149 0.144668 7.90688 0.160063 7.9192L3.20513 10.9612C3.41142 11.1675 3.74703 11.1675 3.95332 10.9612C4.1596 10.7549 4.1596 10.4193 3.95332 10.213L1.81037 8.07007L10.3298 8.07007C10.6223 8.07007 10.8594 7.83299 10.8594 7.54357C10.8594 7.25107 10.6223 7.01399 10.3298 7.01399L1.8073 7.01399L3.93484 4.88644C4.14113 4.68015 4.14113 4.34455 3.93484 4.13826C3.83324 4.03666 3.69776 3.98431 3.56229 3.98431C3.42682 3.98431 3.29134 4.03666 3.18974 4.13826L0.163142 7.16486C0.147747 7.18333 0.135432 7.19565 0.123116 7.20796Z" fill="#D36A6A"/>
<path d="M11.1334 14.0278L7.19235 14.0278C6.89985 14.0278 6.66277 14.2649 6.66277 14.5543C6.66277 14.8468 6.89985 15.0839 7.19235 15.0839L11.1334 15.0839C12.7129 15.0839 13.9999 13.7969 13.9999 12.2174L13.9999 2.8667C13.9999 1.2872 12.7129 0.000204927 11.1334 0.000204789L7.257 0.00020445C6.96451 0.000204425 6.72743 0.237283 6.72743 0.526703C6.72743 0.819202 6.9645 1.05628 7.257 1.05628L11.1334 1.05628C12.131 1.05628 12.9438 1.86912 12.9438 2.8667L12.9438 12.2174C12.9407 13.2181 12.131 14.0278 11.1334 14.0278Z" fill="#D36A6A"/>
</svg>
