<svg width="22" height="17" viewBox="0 0 22 17" fill="none" xmlns="http://www.w3.org/2000/svg">
<path d="M18.8341 0.932959H18.834L3.166 0.932959L3.16589 0.932959C2.43258 0.933783 1.72955 1.22545 1.21102 1.74398C0.692494 2.2625 0.400824 2.96554 0.4 3.69885V3.69896L0.4 13.367L0.4 13.3671C0.400824 14.1004 0.692494 14.8034 1.21102 15.3219C1.72955 15.8405 2.43258 16.1321 3.16589 16.133H3.166H18.834H18.8341C19.5674 16.1321 20.2705 15.8405 20.789 15.3219C21.3075 14.8034 21.5992 14.1004 21.6 13.3671V13.367V3.69896V3.69885C21.5992 2.96554 21.3075 2.2625 20.789 1.74398C20.2705 1.22545 19.5674 0.933783 18.8341 0.932959ZM3.16612 2.13296H18.8339C18.8339 2.13296 18.8339 2.13296 18.834 2.13296C19.2492 2.13348 19.6472 2.29864 19.9407 2.59221C20.2343 2.88581 20.3995 3.28387 20.4 3.69908V4.93296H1.6L1.6 3.69908C1.6 3.69905 1.6 3.69901 1.6 3.69898C1.60052 3.28381 1.76568 2.88579 2.05926 2.59221C2.35283 2.29864 2.75085 2.13348 3.16602 2.13296C3.16606 2.13296 3.16609 2.13296 3.16612 2.13296ZM18.8339 14.933H3.16612C2.75091 14.9325 2.35285 14.7673 2.05926 14.4737C1.76568 14.1801 1.60052 13.7821 1.6 13.3669C1.6 13.3669 1.6 13.3669 1.6 13.3668L1.6 6.13296H20.4V13.3668C20.3995 13.782 20.2343 14.1801 19.9407 14.4737C19.6471 14.7673 19.2491 14.9325 18.8339 14.933Z" fill="white" stroke="white" stroke-width="0.2"/>
</svg>
