<svg width="14" height="15" viewBox="0 0 14 15" fill="none" xmlns="http://www.w3.org/2000/svg">
<path d="M13.069 7.71434C13.0412 7.65793 13.0268 7.59589 13.0268 7.53301C13.0268 7.47013 13.0412 7.40809 13.069 7.35168L13.5912 6.2835C13.8819 5.68875 13.6516 4.97987 13.0668 4.6696L12.0165 4.11234C11.9609 4.08304 11.9127 4.04135 11.8758 3.99049C11.8388 3.93962 11.814 3.88094 11.8034 3.81897L11.598 2.64787C11.4836 1.99584 10.8804 1.55768 10.2251 1.65041L9.04786 1.81693C8.98563 1.82592 8.92216 1.8205 8.86236 1.80106C8.80256 1.78163 8.74803 1.74871 8.70298 1.70485L7.84846 0.878196C7.37266 0.417894 6.62727 0.417866 6.15149 0.878196L5.29695 1.70493C5.25189 1.74878 5.19736 1.78169 5.13756 1.80113C5.07776 1.82056 5.0143 1.82599 4.95207 1.81701L3.77484 1.65049C3.11928 1.55771 2.51635 1.99592 2.40198 2.64795L2.19657 3.819C2.1859 3.88096 2.16112 3.93965 2.12417 3.99052C2.08721 4.04139 2.03906 4.08309 1.98343 4.1124L0.93316 4.66966C0.34839 4.9799 0.118048 5.68884 0.408765 6.28359L0.930891 7.35174C0.958684 7.40814 0.973138 7.47018 0.973138 7.53306C0.973138 7.59595 0.958684 7.65799 0.930891 7.71439L0.408738 8.78254C0.118021 9.37729 0.348363 10.0862 0.933133 10.3964L1.9834 10.9537C2.03904 10.983 2.08719 11.0247 2.12416 11.0756C2.16112 11.1264 2.18589 11.1851 2.19657 11.2471L2.40198 12.4182C2.5061 13.0117 3.01507 13.428 3.60004 13.428C3.65765 13.428 3.71611 13.4239 3.77487 13.4156L4.95209 13.2491C5.01433 13.2401 5.07779 13.2455 5.1376 13.2649C5.1974 13.2844 5.25193 13.3173 5.29698 13.3612L6.15149 14.1878C6.38944 14.418 6.69465 14.5331 6.99996 14.533C7.3052 14.533 7.6106 14.4179 7.84844 14.1878L8.70298 13.3612C8.79518 13.272 8.92085 13.2313 9.04786 13.2491L10.2251 13.4156C10.8807 13.5084 11.4836 13.0702 11.598 12.4181L11.8034 11.2471C11.8141 11.1851 11.8388 11.1265 11.8758 11.0756C11.9127 11.0247 11.9609 10.983 12.0165 10.9537L13.0668 10.3964C13.6516 10.0862 13.8819 9.37727 13.5912 8.78252L13.069 7.71434ZM5.38502 3.89944C6.20129 3.89944 6.86538 4.56354 6.86538 5.3798C6.86538 6.19606 6.20129 6.86015 5.38502 6.86015C4.56876 6.86015 3.90467 6.19606 3.90467 5.3798C3.90467 4.56354 4.56876 3.89944 5.38502 3.89944ZM4.62094 10.483C4.5421 10.5618 4.43877 10.6012 4.33547 10.6012C4.23216 10.6012 4.12881 10.5618 4.05 10.483C3.89234 10.3253 3.89234 10.0697 4.05 9.912L9.37897 4.58303C9.5366 4.42537 9.79226 4.42537 9.94993 4.58303C10.1076 4.7407 10.1076 4.99633 9.94993 5.15399L4.62094 10.483ZM8.61485 11.1666C7.79859 11.1666 7.13449 10.5025 7.13449 9.68625C7.13449 8.86999 7.79859 8.20589 8.61485 8.20589C9.43111 8.20589 10.0952 8.86999 10.0952 9.68625C10.0952 10.5025 9.43111 11.1666 8.61485 11.1666Z" fill="black"/>
<path d="M8.61461 9.01327C8.24359 9.01327 7.94171 9.31511 7.94171 9.68614C7.94171 10.0572 8.24356 10.359 8.61461 10.359C8.98564 10.359 9.28748 10.0572 9.28748 9.68614C9.28748 9.31511 8.98564 9.01327 8.61461 9.01327ZM5.38479 4.70679C5.01376 4.70679 4.71191 5.00863 4.71191 5.37966C4.71191 5.75068 5.01376 6.05256 5.38479 6.05256C5.75581 6.05256 6.05768 5.75071 6.05768 5.37966C6.05766 5.00866 5.75581 4.70679 5.38479 4.70679Z" fill="black"/>
</svg>
