<svg width="17" height="17" viewBox="0 0 17 17" fill="none" xmlns="http://www.w3.org/2000/svg">
<path d="M16.3434 15.6023L12.0834 11.4104C13.199 10.1983 13.8844 8.59541 13.8844 6.83156C13.8839 3.05835 10.776 0 6.94194 0C3.10788 0 0 3.05835 0 6.83156C0 10.6048 3.10788 13.6631 6.94194 13.6631C8.59851 13.6631 10.1179 13.0901 11.3113 12.1375L15.5879 16.346C15.7963 16.5513 16.1346 16.5513 16.343 16.346C16.3925 16.2976 16.4319 16.2398 16.4588 16.176C16.4857 16.1121 16.4996 16.0436 16.4997 15.9743C16.4997 15.905 16.4859 15.8364 16.4591 15.7725C16.4323 15.7087 16.3929 15.6508 16.3434 15.6023ZM6.94194 12.612C3.69791 12.612 1.06811 10.024 1.06811 6.83156C1.06811 3.63908 3.69791 1.05108 6.94194 1.05108C10.186 1.05108 12.8158 3.63908 12.8158 6.83156C12.8158 10.024 10.186 12.612 6.94194 12.612Z" fill="#7A7A83"/>
</svg>
