<svg width="17" height="17" viewBox="0 0 17 17" fill="none" xmlns="http://www.w3.org/2000/svg">
<path d="M15.5785 0.504463C15.3578 0.283033 15.0807 0.126123 14.7773 0.0506877C14.4739 -0.0247475 14.1557 -0.01584 13.857 0.0764478L1.21375 3.96704C0.885459 4.06817 0.594964 4.26528 0.379687 4.53297C0.164411 4.80066 0.0342138 5.12668 0.00586757 5.46903C-0.0224787 5.81137 0.0523244 6.15437 0.220641 6.45382C0.388958 6.75328 0.643078 6.99548 0.950267 7.14923L5.50055 9.44493L8.52216 6.42358C8.67296 6.27278 8.87748 6.18806 9.09075 6.18806C9.30401 6.18806 9.50853 6.27278 9.65933 6.42358C9.81013 6.57438 9.89485 6.77891 9.89485 6.99217C9.89485 7.20543 9.81013 7.40996 9.65933 7.56076L6.65188 10.568L8.9337 15.1323C9.07553 15.4183 9.29455 15.659 9.56601 15.827C9.83747 15.9951 10.1505 16.0839 10.4698 16.0833C10.5177 16.0833 10.5664 16.081 10.6151 16.077C10.9576 16.0497 11.2839 15.9198 11.5516 15.7043C11.8193 15.4889 12.0159 15.1979 12.1159 14.8691L16.0065 2.22593C16.0987 1.92722 16.1076 1.60899 16.0322 1.3056C15.9567 1.00221 15.7999 0.725193 15.5785 0.504463Z" fill="white"/>
</svg>
