<svg width="15" height="16" viewBox="0 0 15 16" fill="none" xmlns="http://www.w3.org/2000/svg">
<path d="M14.7402 9.92321L13.3244 8.81609C13.343 8.64536 13.3577 8.44577 13.3577 8.23461C13.3577 8.02344 13.3423 7.82386 13.3244 7.65313L14.7415 6.54538C15.0046 6.33743 15.0771 5.96838 14.909 5.66097L13.4367 3.11363C13.2756 2.82034 12.9142 2.68619 12.585 2.80749L10.9143 3.47817C10.5947 3.24712 10.2591 3.05202 9.91183 2.89606L9.65768 1.12403C9.61598 0.787054 9.32331 0.532898 8.97737 0.532898H6.02506C5.67911 0.532898 5.38645 0.787054 5.34538 1.1176L5.09059 2.89606C4.75427 3.04817 4.42376 3.24008 4.08937 3.47883L2.41425 2.80623C2.094 2.68107 1.72943 2.8133 1.56899 3.10722L0.0947404 5.65842C-0.0791799 5.95238 -0.00793903 6.33361 0.261621 6.54667L1.67744 7.65316C1.65497 7.8701 1.64408 8.05813 1.64408 8.23464C1.64408 8.41115 1.655 8.59918 1.67618 8.81612L0.259064 9.92453C-0.00345639 10.1324 -0.0753591 10.5015 0.0921531 10.8089L1.56447 13.3562C1.72428 13.6489 2.08497 13.7824 2.41614 13.6624L4.08678 12.9917C4.4064 13.2221 4.74272 13.4172 5.08993 13.5738L5.34409 15.3452C5.38582 15.6822 5.67848 15.9363 6.0244 15.9363H8.97671C9.32265 15.9363 9.61532 15.6822 9.65638 15.3516L9.91117 13.5738C10.2475 13.4217 10.578 13.2298 10.9124 12.991L12.5875 13.6637C12.9065 13.7875 13.2723 13.6566 13.4328 13.3627L14.9128 10.8025C15.0765 10.5021 15.0046 10.1331 14.7402 9.92321ZM14.3519 10.488L12.8231 13.0668L10.9856 12.3287C10.8816 12.287 10.7635 12.303 10.6737 12.3698C10.2757 12.6676 9.89132 12.8916 9.49724 13.0527C9.44538 13.0738 9.39997 13.1082 9.36552 13.1523C9.33106 13.1964 9.30876 13.2488 9.30084 13.3043L8.97674 15.2945L5.9814 15.2605L5.70092 13.3049C5.69287 13.2495 5.67053 13.1972 5.63609 13.1531C5.60165 13.1089 5.55631 13.0745 5.50453 13.0533C5.09441 12.8851 4.6997 12.656 4.33065 12.3723C4.2746 12.329 4.20574 12.3055 4.13489 12.3056C4.09446 12.3056 4.05402 12.3126 4.01488 12.3287L2.12474 13.0417L0.652422 10.4944C0.638945 10.4693 0.641502 10.4405 0.656905 10.4283L2.21458 9.21077C2.25822 9.17654 2.29227 9.1316 2.31342 9.08032C2.33456 9.02903 2.34208 8.97315 2.33525 8.91811C2.30122 8.64918 2.28582 8.4316 2.28582 8.23458C2.28582 8.03755 2.30185 7.82061 2.33525 7.55105C2.34214 7.496 2.33465 7.4401 2.3135 7.38881C2.29235 7.33752 2.25827 7.29258 2.21458 7.25839L0.649264 5.98186L2.17805 3.40308L4.01554 4.14115C4.12015 4.18351 4.2376 4.16747 4.32809 4.10008C4.72536 3.80164 5.11045 3.57829 5.50453 3.41719C5.55619 3.39585 5.60141 3.36143 5.63573 3.31732C5.67006 3.2732 5.69231 3.22091 5.70029 3.16559L6.02506 1.1747L9.02102 1.20935L9.30084 3.16559C9.30889 3.22098 9.33124 3.27331 9.36568 3.31743C9.40012 3.36155 9.44546 3.39593 9.49724 3.41719C9.90672 3.5847 10.3014 3.81383 10.6711 4.09816C10.7616 4.16747 10.8804 4.18417 10.9863 4.14115L12.8764 3.42811L14.3487 5.97545C14.3622 6.00048 14.3596 6.02873 14.3442 6.04092L12.7866 7.25842C12.7429 7.29261 12.7088 7.33755 12.6876 7.38884C12.6665 7.44013 12.659 7.49603 12.6659 7.55108C12.6903 7.74618 12.7153 7.98045 12.7153 8.23461C12.7153 8.4894 12.6903 8.72304 12.6659 8.91814C12.6591 8.97318 12.6666 9.02906 12.6877 9.08035C12.7089 9.13163 12.7429 9.17657 12.7866 9.2108L14.3423 10.4277C14.3589 10.4411 14.3622 10.47 14.3519 10.488Z" fill="#2C2F35"/>
<path d="M7.50056 5.02533C5.73109 5.02533 4.2915 6.46492 4.2915 8.23439C4.2915 10.0039 5.73109 11.4434 7.50056 11.4434C9.27003 11.4434 10.7096 10.0039 10.7096 8.23439C10.7096 6.46492 9.27003 5.02533 7.50056 5.02533ZM7.50056 10.8016C6.08474 10.8016 4.93333 9.65021 4.93333 8.23439C4.93333 6.81856 6.08474 5.66716 7.50056 5.66716C8.91638 5.66716 10.0678 6.81856 10.0678 8.23439C10.0678 9.65021 8.91638 10.8016 7.50056 10.8016Z" fill="#2C2F35"/>
</svg>
