<svg width="326" height="18" viewBox="0 0 326 18" fill="none" xmlns="http://www.w3.org/2000/svg">
<path d="M7.22875 15.4739H0.739779C0.60302 15.4739 0.480407 15.4221 0.381375 15.3231C0.282343 15.2242 0.230469 15.1017 0.230469 14.965V2.71884C0.230469 2.58219 0.282343 2.45968 0.381375 2.36073C0.480407 2.26178 0.60302 2.20996 0.739779 2.20996H7.04012C8.83685 2.20996 10.162 2.53507 11.0156 3.18531C11.8691 3.83555 12.2983 4.82034 12.2983 6.13495V6.19149C12.2983 6.73336 12.1379 7.21869 11.822 7.64276C11.506 8.06683 11.157 8.37309 10.7798 8.56156C11.2844 8.76418 11.7135 9.12229 12.0625 9.63117C12.4114 10.1448 12.5859 10.7008 12.5859 11.3086C12.5859 14.0886 10.8033 15.4786 7.23347 15.4786L7.22875 15.4739ZM7.14387 6.94539C7.27591 6.78048 7.34193 6.58729 7.34193 6.35641C7.34193 6.12553 7.27591 5.92292 7.14387 5.73915C7.01183 5.55539 6.81848 5.46587 6.56382 5.46587H4.96987V7.19041H6.56382C6.81848 7.19041 7.01183 7.11031 7.14387 6.94539ZM4.96987 10.3568V12.2133H6.73359C7.02597 12.2133 7.2429 12.1143 7.38909 11.9211C7.53528 11.7232 7.60602 11.5065 7.60602 11.2662V11.2473C7.60602 11.007 7.52585 10.7997 7.37023 10.6207C7.2146 10.4416 7.00239 10.3568 6.73359 10.3568H4.96987Z" fill="#009F07"/>
<path d="M14.8638 3.84961H19.8155C21.4094 3.84961 22.6591 4.19359 23.5551 4.87681C24.4511 5.56474 24.8991 6.57779 24.8991 7.91596C24.8991 9.25414 24.4511 10.2483 23.5598 10.8892C22.6685 11.53 21.4188 11.8504 19.8108 11.8504H18.7308V15.0215C18.7308 15.144 18.6884 15.2476 18.5988 15.3372C18.5092 15.4267 18.4054 15.4691 18.2828 15.4691H14.8591C14.7365 15.4691 14.6328 15.4267 14.5432 15.3372C14.4536 15.2476 14.4111 15.144 14.4111 15.0215V4.29724C14.4111 4.17473 14.4536 4.07107 14.5432 3.98154C14.6328 3.89202 14.7365 3.84961 14.8591 3.84961H14.8638ZM18.6507 6.9359V8.77825H19.8155C20.0135 8.77825 20.1927 8.70285 20.3484 8.55207C20.504 8.40129 20.5794 8.18926 20.5794 7.91126C20.5794 7.63326 20.5181 7.40237 20.3955 7.2139C20.2729 7.02542 20.0796 6.93118 19.8155 6.93118H18.6507V6.9359Z" fill="#009F07"/>
<path d="M30.304 12.2367H35.4207C35.5433 12.2367 35.6471 12.2791 35.7367 12.3686C35.8263 12.4581 35.8687 12.5618 35.8687 12.6843V15.0261C35.8687 15.1486 35.8263 15.2523 35.7367 15.3418C35.6471 15.4313 35.5433 15.4737 35.4207 15.4737H26.7625C26.6398 15.4737 26.5361 15.4313 26.4465 15.3418C26.3569 15.2523 26.3145 15.1486 26.3145 15.0261V4.30188C26.3145 4.17937 26.3569 4.07571 26.4465 3.98618C26.5361 3.89665 26.6398 3.85425 26.7625 3.85425H35.2887C35.4113 3.85425 35.515 3.89665 35.6046 3.98618C35.6942 4.07571 35.7367 4.17937 35.7367 4.30188V6.64369C35.7367 6.7662 35.6942 6.86985 35.6046 6.95937C35.515 7.0489 35.4113 7.09131 35.2887 7.09131H30.304V8.13734H34.9256C35.0482 8.13734 35.1519 8.17975 35.2415 8.26928C35.3311 8.3588 35.3736 8.46247 35.3736 8.58498V10.743C35.3736 10.8655 35.3311 10.9692 35.2415 11.0587C35.1519 11.1482 35.0482 11.1906 34.9256 11.1906H30.304V12.2367Z" fill="#009F07"/>
<path d="M47.1855 3.84961H49.8122C49.9348 3.84961 50.0386 3.89202 50.1282 3.98154C50.2178 4.07107 50.2602 4.17473 50.2602 4.29724V15.0215C50.2602 15.144 50.2178 15.2476 50.1282 15.3372C50.0386 15.4267 49.9348 15.4691 49.8122 15.4691H46.8035C46.6809 15.4691 46.5771 15.4267 46.4875 15.3372C46.3979 15.2476 46.3555 15.144 46.3555 15.0215V10.4698L45.2567 12.265C45.0775 12.543 44.8747 12.6797 44.6437 12.6797H43.4789C43.2478 12.6797 43.0403 12.543 42.8658 12.265L41.767 10.4698V15.0215C41.767 15.144 41.7246 15.2476 41.635 15.3372C41.5454 15.4267 41.4416 15.4691 41.319 15.4691H38.3103C38.1877 15.4691 38.0839 15.4267 37.9943 15.3372C37.9047 15.2476 37.8623 15.144 37.8623 15.0215V4.29724C37.8623 4.17473 37.9047 4.07107 37.9943 3.98154C38.0839 3.89202 38.1877 3.84961 38.3103 3.84961H40.937C41.2483 3.84961 41.4841 4.0004 41.6538 4.29724L44.0636 8.28349L46.4734 4.29724C46.6385 4.0004 46.879 3.84961 47.1902 3.84961H47.1855Z" fill="#009F07"/>
<path d="M53.9345 11.1389C52.7367 10.3756 52.1377 9.32482 52.1377 7.99136C52.1377 6.65789 52.5857 5.63542 53.4818 4.91922C54.3778 4.20301 55.6275 3.84961 57.2214 3.84961H62.14C62.2626 3.84961 62.3664 3.89202 62.456 3.98154C62.5456 4.07107 62.588 4.17473 62.588 4.29724V15.0215C62.588 15.144 62.5456 15.2476 62.456 15.3372C62.3664 15.4267 62.2626 15.4691 62.14 15.4691H58.8814C58.7588 15.4691 58.655 15.4267 58.5654 15.3372C58.4758 15.2476 58.4334 15.144 58.4334 15.0215V11.8504H57.7496L56.3207 15.0215C56.1886 15.3183 55.9481 15.4691 55.6086 15.4691H52.2038C52.1047 15.4691 52.0199 15.4314 51.9444 15.3607C51.8737 15.2901 51.8359 15.2147 51.8359 15.1346C51.8359 15.0545 51.8548 14.9838 51.8878 14.9178L53.9298 11.1342L53.9345 11.1389ZM58.4381 8.69814V6.9359H57.2261C56.9715 6.9359 56.7781 7.02542 56.6508 7.20918C56.5235 7.39295 56.4574 7.60499 56.4574 7.85C56.4574 8.09502 56.5235 8.29762 56.6555 8.45783C56.7875 8.61803 56.9762 8.69814 57.2214 8.69814H58.4334H58.4381Z" fill="#009F07"/>
<path d="M84.4781 3.84961H94.5794C94.702 3.84961 94.8058 3.89202 94.8954 3.98154C94.985 4.07107 95.0274 4.17473 95.0274 4.29724V15.0215C95.0274 15.144 94.985 15.2476 94.8954 15.3372C94.8058 15.4267 94.702 15.4691 94.5794 15.4691H91.3208C91.1982 15.4691 91.0944 15.4267 91.0048 15.3372C90.9152 15.2476 90.8728 15.144 90.8728 15.0215V7.50132H88.18V15.0215C88.18 15.144 88.1376 15.2476 88.048 15.3372C87.9584 15.4267 87.8546 15.4691 87.732 15.4691H84.4734C84.3508 15.4691 84.247 15.4267 84.1574 15.3466C84.0678 15.2618 84.0254 15.1534 84.0254 15.0215V4.29724C84.0254 4.17473 84.0678 4.07107 84.1574 3.98154C84.247 3.89202 84.3508 3.84961 84.4734 3.84961H84.4781Z" fill="#009F07"/>
<path d="M97.6357 3.84961H100.644C100.767 3.84961 100.871 3.89202 100.96 3.98154C101.05 4.07107 101.092 4.17473 101.092 4.29724V8.83007L103.903 4.23127C104.049 3.97683 104.276 3.84961 104.587 3.84961H107.214C107.336 3.84961 107.44 3.89202 107.529 3.98154C107.619 4.07107 107.662 4.17473 107.662 4.29724V15.0215C107.662 15.144 107.619 15.2476 107.529 15.3372C107.44 15.4267 107.336 15.4691 107.214 15.4691H104.205C104.082 15.4691 103.978 15.4267 103.889 15.3372C103.799 15.2476 103.757 15.144 103.757 15.0215V10.8562L100.946 15.0922C100.781 15.3466 100.555 15.4738 100.267 15.4738H97.6404C97.5178 15.4738 97.414 15.4314 97.3244 15.3419C97.2348 15.2524 97.1924 15.1487 97.1924 15.0262V4.30196C97.1924 4.17945 97.2348 4.07578 97.3244 3.98626C97.414 3.89673 97.5178 3.85433 97.6404 3.85433L97.6357 3.84961Z" fill="#009F07"/>
<path d="M109.684 3.84961H119.423C119.545 3.84961 119.649 3.89202 119.738 3.98154C119.828 4.07107 119.871 4.17473 119.871 4.29724V6.96889C119.871 7.09139 119.828 7.19505 119.738 7.28457C119.649 7.3741 119.545 7.41651 119.423 7.41651H116.664V15.0215C116.664 15.144 116.621 15.2476 116.532 15.3372C116.442 15.4267 116.338 15.4691 116.216 15.4691H112.891C112.768 15.4691 112.665 15.4267 112.575 15.3372C112.486 15.2476 112.443 15.144 112.443 15.0215V7.41651H109.684C109.562 7.41651 109.458 7.3741 109.368 7.28457C109.279 7.19505 109.236 7.09139 109.236 6.96889V4.29724C109.236 4.17473 109.279 4.07107 109.368 3.98154C109.458 3.89202 109.562 3.84961 109.684 3.84961Z" fill="#009F07"/>
<path d="M126.85 15.4737H121.898C121.776 15.4737 121.672 15.4313 121.582 15.3418C121.493 15.2523 121.45 15.1486 121.45 15.0261V4.30188C121.45 4.17937 121.493 4.07571 121.582 3.98618C121.672 3.89665 121.776 3.85425 121.898 3.85425H125.322C125.445 3.85425 125.548 3.89665 125.638 3.98618C125.727 4.07571 125.77 4.17937 125.77 4.30188V7.47297H126.85C128.458 7.47297 129.703 7.79338 130.599 8.4342C131.49 9.07501 131.938 10.0692 131.938 11.4074C131.938 12.7456 131.49 13.7586 130.594 14.4466C129.698 15.1345 128.448 15.4737 126.855 15.4737H126.85ZM125.685 10.5404V12.3828H126.85C127.114 12.3828 127.307 12.2885 127.43 12.1C127.552 11.9116 127.614 11.6807 127.614 11.4027C127.614 11.1247 127.534 10.9126 127.383 10.7619C127.232 10.6111 127.053 10.5357 126.85 10.5357H125.685V10.5404Z" fill="#009F07"/>
<path d="M160.086 3.84961H163.345C163.468 3.84961 163.571 3.89202 163.661 3.98154C163.751 4.07107 163.793 4.17473 163.793 4.29724V15.0215C163.793 15.144 163.751 15.2476 163.661 15.3372C163.571 15.4267 163.468 15.4691 163.345 15.4691H160.086C159.964 15.4691 159.86 15.4267 159.77 15.3372C159.681 15.2476 159.638 15.144 159.638 15.0215V11.4357H156.946V15.0215C156.946 15.144 156.903 15.2476 156.814 15.3372C156.724 15.4267 156.62 15.4691 156.498 15.4691H153.239C153.116 15.4691 153.013 15.4267 152.923 15.3466C152.833 15.2618 152.791 15.1534 152.791 15.0215V4.29724C152.791 4.17473 152.833 4.07107 152.923 3.98154C153.013 3.89202 153.116 3.84961 153.239 3.84961H156.498C156.62 3.84961 156.724 3.89202 156.814 3.98154C156.903 4.07107 156.946 4.17473 156.946 4.29724V7.78403H159.638V4.29724C159.638 4.17473 159.681 4.07107 159.77 3.98154C159.86 3.89202 159.964 3.84961 160.086 3.84961Z" fill="#009F07"/>
<path d="M169.589 3.84961H173.196C173.597 3.84961 173.842 4.03337 173.946 4.39619L177.653 14.9885C177.662 15.0215 177.672 15.0733 177.672 15.144C177.672 15.2147 177.634 15.2901 177.563 15.3607C177.492 15.4314 177.408 15.4691 177.304 15.4691H174.229C173.899 15.4691 173.682 15.3325 173.583 15.0545L173.182 13.9566H169.608L169.207 15.0545C169.108 15.3325 168.891 15.4691 168.561 15.4691H165.486C165.387 15.4691 165.302 15.4314 165.227 15.3607C165.156 15.2901 165.118 15.2194 165.118 15.144C165.118 15.0686 165.123 15.0215 165.137 14.9885L168.844 4.39619C168.943 4.02866 169.193 3.84961 169.593 3.84961H169.589ZM170.452 10.7242H172.329L171.381 7.63796L170.452 10.7242Z" fill="#009F07"/>
<path d="M182.989 8.34478V10.9834C182.989 11.8316 183.399 12.2556 184.219 12.2556C184.851 12.2556 185.266 11.9729 185.464 11.4075C185.521 11.2285 185.587 11.1107 185.672 11.0447C185.757 10.9834 185.889 10.9505 186.078 10.9505H189.468C189.567 10.9505 189.652 10.9881 189.728 11.0541C189.798 11.1248 189.836 11.2096 189.836 11.3086C189.836 12.2556 189.558 13.052 189.006 13.6928C187.987 14.8896 186.398 15.488 184.238 15.488C182.545 15.488 181.192 15.1252 180.183 14.3948C179.174 13.6645 178.669 12.5478 178.669 11.0353V8.28353C178.669 6.804 179.183 5.692 180.216 4.94752C181.244 4.20305 182.588 3.83081 184.238 3.83081C186.398 3.83081 187.987 4.42922 189.006 5.62604C189.558 6.26685 189.836 7.06316 189.836 8.01025C189.836 8.10919 189.798 8.19401 189.728 8.26469C189.657 8.33537 189.572 8.36834 189.468 8.36834H186.078C185.898 8.36834 185.771 8.33536 185.686 8.27411C185.601 8.21285 185.53 8.09035 185.46 7.9113C185.248 7.34587 184.833 7.06315 184.215 7.06315C183.394 7.06315 182.984 7.48723 182.984 8.33537L182.989 8.34478Z" fill="#009F07"/>
<path d="M191.278 3.84961H201.016C201.139 3.84961 201.243 3.89202 201.332 3.98154C201.422 4.07107 201.464 4.17473 201.464 4.29724V6.96889C201.464 7.09139 201.422 7.19505 201.332 7.28457C201.243 7.3741 201.139 7.41651 201.016 7.41651H198.258V15.0215C198.258 15.144 198.215 15.2476 198.125 15.3372C198.036 15.4267 197.932 15.4691 197.809 15.4691H194.485C194.362 15.4691 194.258 15.4267 194.169 15.3372C194.079 15.2476 194.037 15.144 194.037 15.0215V7.41651H191.278C191.155 7.41651 191.052 7.3741 190.962 7.28457C190.873 7.19505 190.83 7.09139 190.83 6.96889V4.29724C190.83 4.17473 190.873 4.07107 190.962 3.98154C191.052 3.89202 191.155 3.84961 191.278 3.84961Z" fill="#009F07"/>
<path d="M204.232 5.03227C205.246 4.23125 206.59 3.83545 208.264 3.83545C209.938 3.83545 211.282 4.23596 212.292 5.04169C213.305 5.84742 213.81 6.97828 213.81 8.43425V10.9598C213.81 12.4393 213.31 13.5655 212.306 14.3335C211.301 15.1016 209.952 15.4926 208.259 15.4926C206.567 15.4926 205.213 15.1063 204.213 14.3335C203.214 13.5608 202.709 12.4346 202.709 10.9598V8.43425C202.709 6.96414 203.214 5.83329 204.227 5.03699L204.232 5.03227ZM207.364 11.9399C207.585 12.1472 207.882 12.2556 208.259 12.2556C208.637 12.2556 208.934 12.1519 209.156 11.9399C209.377 11.7326 209.49 11.4122 209.49 10.9834V8.34472C209.49 7.92536 209.377 7.60967 209.156 7.39293C208.934 7.17618 208.637 7.07251 208.259 7.07251C207.882 7.07251 207.585 7.18089 207.364 7.39293C207.142 7.60496 207.033 7.92536 207.033 8.34472V10.9834C207.033 11.4122 207.142 11.7326 207.364 11.9399Z" fill="#009F07"/>
<path d="M217.149 11.1389C215.952 10.3756 215.353 9.32482 215.353 7.99136C215.353 6.65789 215.801 5.63542 216.697 4.91922C217.593 4.20301 218.842 3.84961 220.436 3.84961H225.355C225.477 3.84961 225.581 3.89202 225.671 3.98154C225.76 4.07107 225.803 4.17473 225.803 4.29724V15.0215C225.803 15.144 225.76 15.2476 225.671 15.3372C225.581 15.4267 225.477 15.4691 225.355 15.4691H222.096C221.974 15.4691 221.87 15.4267 221.78 15.3372C221.691 15.2476 221.648 15.144 221.648 15.0215V11.8504H220.964L219.536 15.0215C219.403 15.3183 219.163 15.4691 218.823 15.4691H215.419C215.32 15.4691 215.235 15.4314 215.159 15.3607C215.088 15.2901 215.051 15.2147 215.051 15.1346C215.051 15.0545 215.07 14.9838 215.103 14.9178L217.145 11.1342L217.149 11.1389ZM221.653 8.69814V6.9359H220.441C220.186 6.9359 219.993 7.02542 219.866 7.20918C219.738 7.39295 219.672 7.60499 219.672 7.85C219.672 8.09502 219.738 8.29762 219.87 8.45783C220.002 8.61803 220.191 8.69814 220.436 8.69814H221.648H221.653Z" fill="#009F07"/>
<path d="M240.418 15.4737H228.421C228.298 15.4737 228.194 15.4313 228.105 15.3418C228.015 15.2523 227.973 15.1486 227.973 15.0261V4.30188C227.973 4.16995 228.015 4.06158 228.105 3.97676C228.194 3.89195 228.298 3.85425 228.421 3.85425H231.51C231.632 3.85425 231.736 3.89665 231.825 3.98618C231.915 4.07571 231.958 4.17937 231.958 4.30188V11.822H233.236V4.30188C233.236 4.17937 233.278 4.07571 233.368 3.98618C233.457 3.89665 233.561 3.85425 233.684 3.85425H236.442C236.565 3.85425 236.669 3.89665 236.758 3.98618C236.848 4.07571 236.89 4.17937 236.89 4.30188V11.822H238.154V4.30188C238.154 4.17937 238.197 4.07571 238.286 3.98618C238.376 3.89665 238.48 3.85425 238.602 3.85425H241.691C241.814 3.85425 241.917 3.89665 242.007 3.98618C242.097 4.07571 242.139 4.17937 242.139 4.30188V11.822H243.37C243.492 11.822 243.596 11.8644 243.686 11.954C243.775 12.0435 243.818 12.1472 243.818 12.2697V17.0852C243.818 17.2077 243.775 17.3114 243.686 17.4009C243.596 17.4904 243.492 17.5328 243.37 17.5328H240.861C240.738 17.5328 240.635 17.4904 240.545 17.4009C240.455 17.3114 240.413 17.2077 240.413 17.0852V15.4737H240.418Z" fill="#009F07"/>
<path d="M245.684 3.84961H248.693C248.816 3.84961 248.92 3.89202 249.009 3.98154C249.099 4.07107 249.141 4.17473 249.141 4.29724V8.83007L251.952 4.23127C252.098 3.97683 252.324 3.84961 252.636 3.84961H255.262C255.385 3.84961 255.489 3.89202 255.578 3.98154C255.668 4.07107 255.71 4.17473 255.71 4.29724V15.0215C255.71 15.144 255.668 15.2476 255.578 15.3372C255.489 15.4267 255.385 15.4691 255.262 15.4691H252.254C252.131 15.4691 252.027 15.4267 251.938 15.3372C251.848 15.2476 251.806 15.144 251.806 15.0215V10.8562L248.995 15.0922C248.83 15.3466 248.604 15.4738 248.316 15.4738H245.689C245.567 15.4738 245.463 15.4314 245.373 15.3419C245.284 15.2524 245.241 15.1487 245.241 15.0262V4.30196C245.241 4.17945 245.284 4.07578 245.373 3.98626C245.463 3.89673 245.567 3.85433 245.689 3.85433L245.684 3.84961Z" fill="#009F07"/>
<path d="M258.313 3.8496H261.322C261.445 3.8496 261.548 3.892 261.638 3.98153C261.728 4.07105 261.77 4.17472 261.77 4.29723V8.83006L264.581 4.23126C264.727 3.97682 264.953 3.8496 265.265 3.8496H267.891C268.014 3.8496 268.118 3.892 268.207 3.98153C268.297 4.07105 268.339 4.17472 268.339 4.29723V15.0215C268.339 15.144 268.297 15.2476 268.207 15.3372C268.118 15.4267 268.014 15.4691 267.891 15.4691H264.883C264.76 15.4691 264.656 15.4267 264.567 15.3372C264.477 15.2476 264.435 15.144 264.435 15.0215V10.8562L261.624 15.0921C261.459 15.3466 261.233 15.4738 260.945 15.4738H258.318C258.196 15.4738 258.092 15.4314 258.002 15.3419C257.913 15.2524 257.87 15.1487 257.87 15.0262V4.30195C257.87 4.17944 257.913 4.07577 258.002 3.98625C258.092 3.89672 258.196 3.85431 258.318 3.85431L258.313 3.8496ZM263.732 0.343958C263.732 0.113076 263.836 0 264.048 0H265.694C265.906 0 266.01 0.108365 266.01 0.329823C266.01 1.14498 265.76 1.79993 265.26 2.28997C264.76 2.78 264.029 3.02502 263.058 3.02502C262.086 3.02502 261.355 2.7753 260.855 2.28055C260.355 1.7858 260.105 1.13555 260.105 0.329823C260.105 0.113076 260.209 0 260.421 0H262.067C262.279 0 262.383 0.113076 262.383 0.343958C262.383 1.01304 262.61 1.34289 263.058 1.34289C263.506 1.34289 263.732 1.00833 263.732 0.343958Z" fill="#009F07"/>
<path d="M293.541 4.29731V6.96895C293.541 7.83122 293.913 8.26472 294.653 8.26472H295.785V4.29731C295.785 4.1748 295.828 4.07113 295.917 3.9816C296.007 3.89208 296.111 3.84967 296.233 3.84967H299.657C299.78 3.84967 299.883 3.89208 299.973 3.9816C300.063 4.07113 300.105 4.1748 300.105 4.29731V15.0215C300.105 15.1441 300.063 15.2477 299.973 15.3372C299.883 15.4268 299.78 15.4692 299.657 15.4692H296.233C296.111 15.4692 296.007 15.4268 295.917 15.3372C295.828 15.2477 295.785 15.1441 295.785 15.0215V12.0484H294.606C292.932 12.0484 291.616 11.6149 290.65 10.7432C289.688 9.87617 289.211 8.59454 289.221 6.89826L289.24 4.29259C289.24 4.17008 289.282 4.06643 289.372 3.9769C289.461 3.88738 289.565 3.84497 289.688 3.84497H293.093C293.215 3.84497 293.319 3.88738 293.408 3.9769C293.498 4.06643 293.541 4.17008 293.541 4.29259V4.29731Z" fill="#009F07"/>
<path d="M305.887 3.84961H309.494C309.895 3.84961 310.14 4.03337 310.244 4.39619L313.951 14.9885C313.96 15.0215 313.97 15.0733 313.97 15.144C313.97 15.2147 313.932 15.2901 313.861 15.3607C313.79 15.4314 313.705 15.4691 313.602 15.4691H310.527C310.197 15.4691 309.98 15.3325 309.881 15.0545L309.48 13.9566H305.905L305.505 15.0545C305.406 15.3325 305.189 15.4691 304.859 15.4691H301.784C301.685 15.4691 301.6 15.4314 301.524 15.3607C301.454 15.2901 301.416 15.2194 301.416 15.144C301.416 15.0686 301.421 15.0215 301.435 14.9885L305.141 4.39619C305.241 4.02866 305.49 3.84961 305.891 3.84961H305.887ZM306.75 10.7242H308.627L307.679 7.63796L306.75 10.7242Z" fill="#009F07"/>
<path d="M315.743 3.8496H318.752C318.874 3.8496 318.978 3.892 319.068 3.98153C319.157 4.07105 319.2 4.17472 319.2 4.29723V8.83006L322.01 4.23126C322.157 3.97682 322.383 3.8496 322.694 3.8496H325.321C325.444 3.8496 325.547 3.892 325.637 3.98153C325.726 4.07105 325.769 4.17472 325.769 4.29723V15.0215C325.769 15.144 325.726 15.2476 325.637 15.3372C325.547 15.4267 325.444 15.4691 325.321 15.4691H322.312C322.19 15.4691 322.086 15.4267 321.996 15.3372C321.907 15.2476 321.864 15.144 321.864 15.0215V10.8562L319.054 15.0921C318.889 15.3466 318.662 15.4738 318.375 15.4738H315.748C315.625 15.4738 315.521 15.4314 315.432 15.3419C315.342 15.2524 315.3 15.1487 315.3 15.0262V4.30195C315.3 4.17944 315.342 4.07577 315.432 3.98625C315.521 3.89672 315.625 3.85431 315.748 3.85431L315.743 3.8496ZM321.162 0.343958C321.162 0.113076 321.265 0 321.478 0H323.123C323.336 0 323.439 0.108365 323.439 0.329823C323.439 1.14498 323.189 1.79993 322.689 2.28997C322.19 2.78 321.459 3.02502 320.487 3.02502C319.516 3.02502 318.785 2.7753 318.285 2.28055C317.785 1.7858 317.535 1.13555 317.535 0.329823C317.535 0.113076 317.639 0 317.851 0H319.497C319.709 0 319.813 0.113076 319.813 0.343958C319.813 1.01304 320.039 1.34289 320.487 1.34289C320.935 1.34289 321.162 1.00833 321.162 0.343958Z" fill="#009F07"/>
</svg>
