<svg width="18" height="18" viewBox="0 0 18 18" fill="none" xmlns="http://www.w3.org/2000/svg">
<path d="M8.7853 4.5842e-07C6.98732 -0.00035141 5.23254 0.551074 3.75795 1.57981C2.28336 2.60854 1.15998 4.06502 0.539542 5.75255C-0.0809001 7.44009 -0.168522 9.27737 0.288509 11.0163C0.745541 12.7552 1.72521 14.312 3.09521 15.4764C3.10161 15.4823 3.10802 15.488 3.11472 15.4935C3.13407 15.5099 3.15224 15.5275 3.1719 15.5437C4.74918 16.8539 6.73509 17.5712 8.78559 17.5712C10.8361 17.5712 12.822 16.8539 14.3993 15.5437C14.4206 15.5261 14.4402 15.5071 14.4612 15.4893C14.4693 15.4825 14.4772 15.4761 14.4846 15.4688C15.8525 14.3033 16.8299 12.7462 17.2851 11.0077C17.7402 9.26924 17.6511 7.43298 17.0298 5.74672C16.4085 4.06045 15.2849 2.60533 13.8107 1.57771C12.3364 0.550092 10.5824 -0.00058 8.7853 4.5842e-07ZM13.7335 14.9314C12.3318 16.0611 10.5856 16.6772 8.7853 16.6772C6.98495 16.6772 5.2388 16.0611 3.83705 14.9314C3.83705 14.9175 3.83571 14.904 3.83571 14.8903C3.83571 12.5092 6.05603 10.5721 8.7853 10.5721C11.5146 10.5721 13.7349 12.5092 13.7349 14.8903C13.7349 14.9041 13.7337 14.9177 13.7335 14.9314ZM5.95611 6.8496C5.95611 6.29004 6.12204 5.74305 6.43291 5.27779C6.74379 4.81254 7.18565 4.44991 7.70261 4.23578C8.21958 4.02164 8.78843 3.96562 9.33724 4.07478C9.88605 4.18395 10.3902 4.4534 10.7858 4.84907C11.1815 5.24474 11.451 5.74885 11.5601 6.29766C11.6693 6.84647 11.6133 7.41532 11.3991 7.93229C11.185 8.44925 10.8224 8.89111 10.3571 9.20198C9.89185 9.51286 9.34486 9.67879 8.7853 9.67879C8.0352 9.67796 7.31607 9.37962 6.78567 8.84923C6.25528 8.31883 5.95694 7.5997 5.95611 6.8496ZM14.5686 14.1522C14.2613 12.2277 12.7718 10.638 10.7784 9.99134C11.4594 9.55965 11.9818 8.91853 12.2671 8.1644C12.5524 7.41026 12.5851 6.58389 12.3604 5.80956C12.1356 5.03522 11.6655 4.35479 11.0208 3.87059C10.3761 3.3864 9.59159 3.12462 8.7853 3.12462C7.979 3.12462 7.19451 3.3864 6.54979 3.87059C5.90507 4.35479 5.43499 5.03522 5.21023 5.80956C4.98548 6.58389 5.01821 7.41026 5.3035 8.1644C5.58879 8.91853 6.11122 9.55965 6.79221 9.99134C4.79883 10.6385 3.30933 12.2277 3.002 14.1522C1.95686 13.0266 1.2629 11.6205 1.00522 10.1063C0.747527 8.59205 0.937308 7.03554 1.55129 5.62761C2.16527 4.21967 3.17676 3.0215 4.46173 2.18002C5.74671 1.33854 7.24931 0.890316 8.7853 0.890316C10.3213 0.890316 11.8239 1.33854 13.1089 2.18002C14.3938 3.0215 15.4053 4.21967 16.0193 5.62761C16.6333 7.03554 16.8231 8.59205 16.5654 10.1063C16.3077 11.6205 15.6137 13.0266 14.5686 14.1522Z" fill="white"/>
</svg>
